<svg xmlns="http://www.w3.org/2000/svg" version="1.1" xmlns:xlink="http://www.w3.org/1999/xlink" xmlns:svgjs="http://svgjs.dev/svgjs" width="128" height="128" viewBox="0 0 128 128"><g transform="matrix(0.8046875,0,0,0.8046875,12.333870967741937,36.893195795264155)"><svg viewBox="0 0 155 82" data-background-color="#ffffff" preserveAspectRatio="xMidYMid meet" height="67" width="128" xmlns="http://www.w3.org/2000/svg" xmlns:xlink="http://www.w3.org/1999/xlink"><g id="tight-bounds" transform="matrix(1,0,0,1,0.25,0.22779552715655882)"><svg viewBox="0 0 154.5 81.5444089456869" height="81.5444089456869" width="154.5"><g><svg viewBox="0 0 154.5 81.5444089456869" height="81.5444089456869" width="154.5"><g><svg viewBox="0 0 154.5 81.5444089456869" height="81.5444089456869" width="154.5"><g id="textblocktransform"><svg viewBox="0 0 154.5 81.5444089456869" height="81.5444089456869" width="154.5" id="textblock"><g><svg viewBox="0 0 154.5 81.5444089456869" height="81.5444089456869" width="154.5"><g transform="matrix(1,0,0,1,0,0)"><svg width="154.5" viewBox="2.73 -38.72 76.42 40.33" height="81.5444089456869" data-palette-color="#30017e"><path d="M40.92-0.24L40.92-0.24Q38.57 0.29 36.25 0.76 33.94 1.22 31.54 1.61L31.54 1.61Q28.61-2.83 25.76-7.15 22.9-11.47 19.82-15.77L19.82-15.77 14.6-10.69 14.11 0.15Q12.99 0.1 11.89 0.07 10.79 0.05 9.72 0.05L9.72 0.05Q8.69 0.05 7.71 0.1 6.74 0.15 5.76 0.29L5.76 0.29Q5.18-4.2 4.66-8.67 4.15-13.13 3.76-17.68L3.76-17.68Q3.37-22.22 3.15-26.73 2.93-31.25 2.73-35.79L2.73-35.79Q6.4-35.69 9.99-35.67 13.57-35.64 17.24-35.55L17.24-35.55 16.94-24.22Q19.58-26.95 21.92-29.79 24.27-32.62 26.76-35.55L26.76-35.55Q29.1-35.69 31.49-35.86 33.89-36.04 36.23-36.23L36.23-36.23 36.04-32.62 25.68-21.83Q29.39-16.31 33.18-10.99 36.96-5.66 40.92-0.24ZM79.15-8.59L79.15-8.59Q79.15-6.25 78.02-4.81 76.9-3.37 74.85-2.49L74.85-2.49Q73.14-1.76 70.55-1.34 67.97-0.93 65.18-0.76 62.4-0.59 59.71-0.54 57.03-0.49 55.22-0.49L55.22-0.49Q52.15-0.49 49.14-0.59 46.14-0.68 43.06-0.88L43.06-0.88Q43.21-5.86 42.77-10.74L42.77-10.74Q46.43-10.64 50.07-10.57 53.71-10.5 57.37-10.4L57.37-10.4Q58.79-10.35 60.23-10.3 61.67-10.25 63.13-10.25L63.13-10.25Q63.38-10.25 63.86-10.25 64.35-10.25 64.89-10.3 65.43-10.35 65.89-10.45 66.35-10.55 66.6-10.74L66.6-10.74Q66.79-10.94 66.84-11.3 66.89-11.67 66.89-11.96L66.89-11.96Q66.89-12.5 66.75-13.26 66.6-14.01 66.31-14.5L66.31-14.5Q66.26-14.55 65.99-14.6 65.72-14.65 65.38-14.67 65.04-14.7 64.74-14.72 64.45-14.75 64.4-14.75L64.4-14.75Q61.28-14.99 58.18-15.09 55.08-15.19 51.95-15.43L51.95-15.43Q50.53-15.58 49.05-15.72 47.56-15.87 46.29-16.26L46.29-16.26Q45.07-16.6 44.21-17.8 43.36-18.99 42.84-20.53 42.33-22.07 42.11-23.63 41.89-25.2 41.89-26.27L41.89-26.27Q41.89-28.03 42.23-29.61 42.58-31.2 43.33-32.57 44.09-33.94 45.26-34.99 46.43-36.04 48.14-36.72L48.14-36.72Q51.07-37.84 54.42-38.28 57.76-38.72 60.84-38.72L60.84-38.72Q64.45-38.72 67.97-38.28 71.48-37.84 75-37.16L75-37.16Q74.95-35.74 74.92-34.35 74.9-32.96 74.9-31.54L74.9-31.54Q74.9-30.13 75.05-28.69 75.19-27.25 75.34-25.83L75.34-25.83Q70.7-25.73 66.09-25.66 61.47-25.59 56.78-25.39L56.78-25.39Q56.2-25.39 55.2-25.34 54.2-25.29 53.27-25.22 52.34-25.15 51.66-25.1 50.97-25.05 50.97-25.05L50.97-25.05Q50.73-24.51 50.68-23.95 50.63-23.39 50.63-22.8L50.63-22.8Q50.63-22.51 50.66-22.07 50.68-21.63 50.88-21.39L50.88-21.39Q50.93-21.34 51.71-21.24 52.49-21.14 53.44-21.04 54.39-20.95 55.25-20.85 56.1-20.75 56.3-20.75L56.3-20.75Q57.91-20.61 60.08-20.41 62.25-20.21 64.52-19.97 66.79-19.73 68.89-19.36 70.99-18.99 72.56-18.51L72.56-18.51Q73.97-18.02 75.17-16.97 76.36-15.92 77.24-14.53 78.12-13.13 78.64-11.6 79.15-10.06 79.15-8.59Z" opacity="1" transform="matrix(1,0,0,1,0,0)" fill="#30017e" class="undefined-text-0" data-fill-palette-color="primary" id="text-0"></path></svg></g></svg></g></svg></g></svg></g></svg></g><defs></defs></svg><rect width="154.5" height="81.5444089456869" fill="none" stroke="none" visibility="hidden"></rect></g></svg></g></svg>