<svg xmlns="http://www.w3.org/2000/svg" version="1.1" xmlns:xlink="http://www.w3.org/1999/xlink" xmlns:svgjs="http://svgjs.dev/svgjs" width="2000" height="267" viewBox="0 0 2000 267"><g transform="matrix(1,0,0,1,-1.2120939634235128,1.1468761011191475)"><svg viewBox="0 0 396 53" data-background-color="#ffffff" preserveAspectRatio="xMidYMid meet" height="267" width="2000" xmlns="http://www.w3.org/2000/svg" xmlns:xlink="http://www.w3.org/1999/xlink"><g id="tight-bounds" transform="matrix(1,0,0,1,0.23999462884376044,-0.22765705378020584)"><svg viewBox="0 0 395.52 53.4553141075604" height="53.4553141075604" width="395.52"><g><svg viewBox="0 0 395.52 53.4553141075604" height="53.4553141075604" width="395.52"><g><svg viewBox="0 0 395.52 53.4553141075604" height="53.4553141075604" width="395.52"><g id="textblocktransform"><svg viewBox="0 0 395.52 53.4553141075604" height="53.4553141075604" width="395.52" id="textblock"><g><svg viewBox="0 0 395.52 53.4553141075604" height="53.4553141075604" width="395.52"><g transform="matrix(1,0,0,1,0,0)"><svg width="395.52" viewBox="2.7300000190734863 -38.720001220703125 313.2099914550781 42.33000183105469" height="53.4553141075604" data-palette-color="#30017e"><path d="M40.92-0.24L40.92-0.24Q38.57 0.29 36.25 0.76 33.94 1.22 31.54 1.61L31.54 1.61Q28.61-2.83 25.76-7.15 22.9-11.47 19.82-15.77L19.82-15.77 14.6-10.69 14.11 0.15Q12.99 0.1 11.89 0.07 10.79 0.05 9.72 0.05L9.72 0.05Q8.69 0.05 7.71 0.1 6.74 0.15 5.76 0.29L5.76 0.29Q5.18-4.2 4.66-8.67 4.15-13.13 3.76-17.68L3.76-17.68Q3.37-22.22 3.15-26.73 2.93-31.25 2.73-35.79L2.73-35.79Q6.4-35.69 9.99-35.67 13.57-35.64 17.24-35.55L17.24-35.55 16.94-24.22Q19.58-26.95 21.92-29.79 24.27-32.62 26.76-35.55L26.76-35.55Q29.1-35.69 31.49-35.86 33.89-36.04 36.23-36.23L36.23-36.23 36.04-32.62 25.68-21.83Q29.39-16.31 33.18-10.99 36.96-5.66 40.92-0.24ZM49.7-32.67L49.7-32.67Q49.7-31.69 49.29-30.83 48.87-29.98 48.17-29.35 47.46-28.71 46.58-28.34 45.7-27.98 44.82-27.98L44.82-27.98Q43.85-27.98 42.99-28.42 42.14-28.86 41.5-29.54 40.87-30.22 40.52-31.13 40.18-32.03 40.18-32.96L40.18-32.96Q40.18-33.89 40.55-34.69 40.92-35.5 41.53-36.08 42.14-36.67 42.94-37.01 43.75-37.35 44.68-37.35L44.68-37.35Q45.6-37.35 46.51-36.99 47.41-36.62 48.12-35.96 48.83-35.3 49.27-34.45 49.7-33.59 49.7-32.67ZM51.71-24.37L51.71-24.37Q51.46-21.78 51.32-19.24 51.17-16.7 51.02-14.16L51.02-14.16Q50.83-11.18 50.36-8.25 49.9-5.32 49.31-2.39L49.31-2.39 41.84-1.61Q41.84-3.17 41.87-4.69 41.89-6.2 41.89-7.76L41.89-7.76Q41.89-11.77 41.75-15.77 41.6-19.78 41.45-23.78L41.45-23.78Q44.04-23.88 46.56-24.07 49.07-24.27 51.71-24.37ZM90.18-26.9L90.18-26.9 77.63-17.82Q77.78-17.24 78.22-15.94 78.66-14.65 79.19-13.26 79.73-11.87 80.34-10.67 80.95-9.47 81.49-9.13L81.49-9.13Q81.83-8.89 82.37-8.74 82.91-8.59 83.47-8.5 84.03-8.4 84.59-8.37 85.15-8.35 85.54-8.35L85.54-8.35Q86.23-8.35 86.96-8.4 87.69-8.45 88.37-8.54L88.37-8.54Q88.28-7.91 88.23-7.25 88.18-6.59 88.18-5.91L88.18-5.91Q88.18-4.74 88.23-3.56 88.28-2.39 88.28-1.27L88.28-1.27Q87.93-1.22 87.08-1.15 86.23-1.07 85.13-1 84.03-0.93 82.81-0.83 81.59-0.73 80.54-0.66 79.49-0.59 78.73-0.59 77.97-0.59 77.78-0.68L77.78-0.68Q76.95-1.07 76.17-1.51 75.39-1.95 74.85-2.73L74.85-2.73Q74.6-3.08 74.04-4.59 73.48-6.1 72.87-7.91 72.26-9.72 71.75-11.28 71.24-12.84 71.09-13.28L71.09-13.28 66.4-10.25 66.4-1.76 56.73-0.93Q57.03-7.76 57.37-14.53 57.71-21.29 57.71-28.17L57.71-28.17Q57.71-30.27 57.69-32.32 57.66-34.38 57.61-36.52L57.61-36.52Q59.61-36.13 61.59-36.04 63.57-35.94 65.57-35.74L65.57-35.74 65.57-17.48Q69.38-19.82 73.02-22.27 76.66-24.71 80.07-27.64L80.07-27.64Q82.66-27.34 85.13-27.2 87.59-27.05 90.18-26.9ZM99.21-32.67L99.21-32.67Q99.21-31.69 98.8-30.83 98.38-29.98 97.67-29.35 96.97-28.71 96.09-28.34 95.21-27.98 94.33-27.98L94.33-27.98Q93.35-27.98 92.5-28.42 91.64-28.86 91.01-29.54 90.37-30.22 90.03-31.13 89.69-32.03 89.69-32.96L89.69-32.96Q89.69-33.89 90.06-34.69 90.42-35.5 91.03-36.08 91.64-36.67 92.45-37.01 93.25-37.35 94.18-37.35L94.18-37.35Q95.11-37.35 96.01-36.99 96.92-36.62 97.62-35.96 98.33-35.3 98.77-34.45 99.21-33.59 99.21-32.67ZM101.21-24.37L101.21-24.37Q100.97-21.78 100.82-19.24 100.68-16.7 100.53-14.16L100.53-14.16Q100.33-11.18 99.87-8.25 99.41-5.32 98.82-2.39L98.82-2.39 91.35-1.61Q91.35-3.17 91.37-4.69 91.4-6.2 91.4-7.76L91.4-7.76Q91.4-11.77 91.25-15.77 91.11-19.78 90.96-23.78L90.96-23.78Q93.55-23.88 96.06-24.07 98.58-24.27 101.21-24.37ZM164.59-8.59L164.59-8.59Q164.59-6.25 163.46-4.81 162.34-3.37 160.29-2.49L160.29-2.49Q158.58-1.76 155.99-1.34 153.41-0.93 150.62-0.76 147.84-0.59 145.15-0.54 142.47-0.49 140.66-0.49L140.66-0.49Q137.59-0.49 134.58-0.59 131.58-0.68 128.5-0.88L128.5-0.88Q128.65-5.86 128.21-10.74L128.21-10.74Q131.87-10.64 135.51-10.57 139.15-10.5 142.81-10.4L142.81-10.4Q144.23-10.35 145.67-10.3 147.11-10.25 148.57-10.25L148.57-10.25Q148.82-10.25 149.3-10.25 149.79-10.25 150.33-10.3 150.87-10.35 151.33-10.45 151.79-10.55 152.04-10.74L152.04-10.74Q152.23-10.94 152.28-11.3 152.33-11.67 152.33-11.96L152.33-11.96Q152.33-12.5 152.18-13.26 152.04-14.01 151.75-14.5L151.75-14.5Q151.7-14.55 151.43-14.6 151.16-14.65 150.82-14.67 150.48-14.7 150.18-14.72 149.89-14.75 149.84-14.75L149.84-14.75Q146.72-14.99 143.62-15.09 140.51-15.19 137.39-15.43L137.39-15.43Q135.97-15.58 134.48-15.72 133-15.87 131.73-16.26L131.73-16.26Q130.51-16.6 129.65-17.8 128.8-18.99 128.28-20.53 127.77-22.07 127.55-23.63 127.33-25.2 127.33-26.27L127.33-26.27Q127.33-28.03 127.67-29.61 128.01-31.2 128.77-32.57 129.53-33.94 130.7-34.99 131.87-36.04 133.58-36.72L133.58-36.72Q136.51-37.84 139.86-38.28 143.2-38.72 146.28-38.72L146.28-38.72Q149.89-38.72 153.41-38.28 156.92-37.84 160.44-37.16L160.44-37.16Q160.39-35.74 160.36-34.35 160.34-32.96 160.34-31.54L160.34-31.54Q160.34-30.13 160.49-28.69 160.63-27.25 160.78-25.83L160.78-25.83Q156.14-25.73 151.53-25.66 146.91-25.59 142.22-25.39L142.22-25.39Q141.64-25.39 140.64-25.34 139.64-25.29 138.71-25.22 137.78-25.15 137.1-25.1 136.41-25.05 136.41-25.05L136.41-25.05Q136.17-24.51 136.12-23.95 136.07-23.39 136.07-22.8L136.07-22.8Q136.07-22.51 136.1-22.07 136.12-21.63 136.32-21.39L136.32-21.39Q136.36-21.34 137.15-21.24 137.93-21.14 138.88-21.04 139.83-20.95 140.69-20.85 141.54-20.75 141.74-20.75L141.74-20.75Q143.35-20.61 145.52-20.41 147.69-20.21 149.96-19.97 152.23-19.73 154.33-19.36 156.43-18.99 158-18.51L158-18.51Q159.41-18.02 160.61-16.97 161.8-15.92 162.68-14.53 163.56-13.13 164.07-11.6 164.59-10.06 164.59-8.59ZM203.16-16.65L203.16-16.65Q203.16-15.97 203.13-15.16 203.11-14.36 202.99-13.53 202.87-12.7 202.65-11.94 202.43-11.18 202.04-10.6L202.04-10.6Q201.21-9.38 200.47-8.52 199.74-7.67 198.89-7.1 198.03-6.54 196.96-6.2 195.88-5.86 194.42-5.66L194.42-5.66Q192.22-5.32 190.07-5.05 187.92-4.79 185.73-4.79L185.73-4.79Q184.75-4.79 183.73-4.88 182.7-4.98 181.82-5.52L181.82-5.52Q181.33-5.76 180.77-6.18 180.21-6.59 179.67-7.06 179.14-7.52 178.62-7.98 178.11-8.45 177.72-8.79L177.72-8.79 177.43 3.47Q176.06 3.56 174.69 3.54 173.32 3.52 171.91 3.52L171.91 3.52Q171.08 3.52 170.32 3.54 169.57 3.56 168.74 3.61L168.74 3.61Q168.93-0.59 169.1-4.76 169.27-8.94 169.27-13.09L169.27-13.09 169.27-13.67Q169.27-18.31 169.03-22.9 168.78-27.49 168.59-32.13L168.59-32.13Q171.03-32.32 173.42-32.47 175.82-32.62 178.26-32.81L178.26-32.81 178.6-30.22Q181.97-30.62 185.36-30.88 188.75-31.15 192.17-31.15L192.17-31.15Q192.61-31.15 193.12-31.18 193.64-31.2 194.08-31.1L194.08-31.1Q195.25-30.86 196.47-30.49 197.69-30.13 198.76-29.54 199.84-28.96 200.67-28.05 201.5-27.15 201.94-25.88L201.94-25.88Q202.23-24.9 202.48-23.73 202.72-22.56 202.87-21.31 203.01-20.07 203.09-18.87 203.16-17.68 203.16-16.65ZM193.54-17.53L193.54-17.53Q193.54-18.12 193.44-18.8 193.34-19.48 192.95-19.92L192.95-19.92Q191.98-21.04 190.51-21.66 189.05-22.27 187.63-22.27L187.63-22.27Q186.46-22.27 185.09-22.05 183.73-21.83 182.36-21.46 180.99-21.09 179.67-20.63 178.35-20.17 177.28-19.73L177.28-19.73 177.72-13.18Q179.53-12.65 181.6-12.21 183.68-11.77 185.53-11.77L185.53-11.77Q186.02-11.77 187.05-11.74 188.07-11.72 189.17-11.79 190.27-11.87 191.22-12.01 192.17-12.16 192.47-12.55L192.47-12.55Q192.71-12.84 192.9-13.5 193.1-14.16 193.25-14.92 193.39-15.67 193.47-16.38 193.54-17.09 193.54-17.53ZM242.27-22.02L242.27-22.02Q242.27-17.92 241.97-13.87 241.68-9.81 241.39-5.76L241.39-5.76Q235.92-5.27 230.5-4.93 225.08-4.59 219.61-4.59L219.61-4.59Q219.12-4.59 217.8-4.61 216.49-4.64 215.02-4.71 213.56-4.79 212.24-4.91 210.92-5.03 210.48-5.27L210.48-5.27Q208.87-6.15 208.23-7.5 207.6-8.84 207.6-10.55L207.6-10.55Q207.6-11.13 207.65-12.11 207.7-13.09 207.84-14.16 207.99-15.23 208.23-16.16 208.48-17.09 208.82-17.53L208.82-17.53Q209.26-18.12 210.82-18.53 212.38-18.95 214.56-19.19 216.73-19.43 219.25-19.58 221.76-19.73 224.05-19.8 226.35-19.87 228.16-19.87 229.96-19.87 230.74-19.87L230.74-19.87Q230.89-20.95 230.89-21.97L230.89-21.97Q230.89-22.07 230.89-22.49 230.89-22.9 230.84-23L230.84-23Q230.7-23.29 229.91-23.49 229.13-23.68 227.99-23.78 226.84-23.88 225.5-23.95 224.15-24.02 222.88-24.02 221.61-24.02 220.64-24.02 219.66-24.02 219.22-24.02L219.22-24.02Q216.14-24.02 213.07-23.9 209.99-23.78 206.92-23.68L206.92-23.68Q207.11-25.54 207.23-27.44 207.36-29.35 207.26-31.2L207.26-31.2Q210.82-31.84 214.41-32.1 218-32.37 221.66-32.37L221.66-32.37Q222.98-32.37 224.54-32.35 226.11-32.32 227.67-32.25 229.23-32.18 230.77-32.03 232.31-31.88 233.63-31.64L233.63-31.64Q234.99-31.4 236.34-30.76 237.68-30.13 238.85-29.2 240.02-28.27 240.9-27.08 241.78-25.88 242.17-24.51L242.17-24.51Q242.22-24.37 242.24-24.02 242.27-23.68 242.27-23.27 242.27-22.85 242.27-22.51 242.27-22.17 242.27-22.02ZM231.38-10.55L231.38-10.55 231.38-16.8Q229.96-16.85 228.55-16.87 227.13-16.89 225.71-16.89L225.71-16.89Q225.42-16.89 224.08-16.87 222.74-16.85 221.2-16.75 219.66-16.65 218.39-16.5 217.12-16.36 216.93-16.06L216.93-16.06Q216.68-15.67 216.61-15.26 216.54-14.84 216.54-14.4L216.54-14.4Q216.54-14.06 216.58-13.48 216.63-12.89 216.75-12.26 216.88-11.62 217.02-11.08 217.17-10.55 217.41-10.3L217.41-10.3Q217.61-10.06 218.07-9.94 218.54-9.81 219.07-9.74 219.61-9.67 220.15-9.64 220.69-9.62 220.98-9.62L220.98-9.62Q222.15-9.62 223.49-9.72 224.84-9.81 226.23-9.94 227.62-10.06 228.94-10.23 230.26-10.4 231.38-10.55ZM278.98-25.73L278.98-25.73Q278.98-23.49 278.4-21.39L278.4-21.39Q278.06-21.34 276.37-21.26 274.69-21.19 272.37-21.07 270.05-20.95 267.39-20.78 264.73-20.61 262.46-20.41 260.19-20.21 258.6-20 257.01-19.78 256.82-19.58L256.82-19.58Q256.03-18.9 255.64-17.92 255.25-16.94 255.25-15.97L255.25-15.97Q255.25-15.38 255.38-15.06 255.5-14.75 255.79-14.36L255.79-14.36Q255.94-14.21 256.82-14.11 257.69-14.01 258.77-13.96 259.84-13.92 260.77-13.89 261.7-13.87 261.85-13.87L261.85-13.87Q265.36-13.87 268.88-14.01 272.39-14.16 275.91-14.4L275.91-14.4 276.3-6.01Q271.42-5.62 266.51-5.25 261.6-4.88 256.67-4.88L256.67-4.88Q256.43-4.88 255.96-4.88 255.5-4.88 254.96-4.91 254.42-4.93 253.94-4.98 253.45-5.03 253.25-5.08L253.25-5.08Q252.23-5.37 251.23-5.74 250.22-6.1 249.35-6.67 248.47-7.23 247.81-8.01 247.15-8.79 246.86-9.91L246.86-9.91Q246.66-10.64 246.54-11.84 246.42-13.04 246.37-14.31 246.32-15.58 246.29-16.8 246.27-18.02 246.27-18.85L246.27-18.85Q246.27-20.75 246.32-22.41 246.37-24.07 246.86-25.46 247.34-26.86 248.44-27.95 249.54-29.05 251.59-29.88L251.59-29.88Q252.52-30.27 254.37-30.49 256.23-30.71 258.26-30.83 260.28-30.96 262.14-31.01 263.99-31.05 265.02-31.05L265.02-31.05Q268.44-31.05 271.83-30.91 275.22-30.76 278.64-30.52L278.64-30.52Q278.79-29.3 278.89-28.1 278.98-26.9 278.98-25.73ZM315.94-18.12L315.94-18.12Q309.55-17.77 303.2-17.55 296.85-17.33 290.46-17.09L290.46-17.09Q290.41-16.89 290.41-16.7 290.41-16.5 290.41-16.31L290.41-16.31Q290.41-14.65 291.16-13.77 291.92-12.89 293.04-12.52 294.17-12.16 295.53-12.11 296.9-12.06 298.07-12.06L298.07-12.06Q301.34-12.06 304.62-12.28 307.89-12.5 311.21-12.74L311.21-12.74 311.6-4.98Q308.38-4.83 305.18-4.74 301.98-4.64 298.76-4.64L298.76-4.64Q298.07-4.64 296.24-4.66 294.41-4.69 292.34-4.81 290.26-4.93 288.45-5.13 286.65-5.32 286.06-5.66L286.06-5.66Q284.55-6.54 283.69-7.91 282.84-9.28 282.37-10.89 281.91-12.5 281.74-14.18 281.57-15.87 281.52-17.43L281.52-17.43Q281.47-17.68 281.5-17.94 281.52-18.21 281.52-18.46L281.52-18.46Q281.52-21.04 282.08-23.27 282.64-25.49 284.16-27.59L284.16-27.59Q285.18-29.05 287.18-30.03 289.19-31.01 291.53-31.57 293.87-32.13 296.22-32.35 298.56-32.57 300.27-32.57L300.27-32.57Q301.78-32.57 303.98-32.3 306.18-32.03 308.35-31.4 310.52-30.76 312.28-29.76 314.04-28.76 314.67-27.29L314.67-27.29Q314.77-27 314.89-26.29 315.02-25.59 315.16-24.68 315.31-23.78 315.43-22.75 315.55-21.73 315.65-20.8 315.75-19.87 315.82-19.14 315.9-18.41 315.94-18.12ZM293-21.14L309.3-21.68Q309.01-23.83 308.21-25.07 307.4-26.32 306.2-26.93 305.01-27.54 303.47-27.71 301.93-27.88 300.17-27.88L300.17-27.88Q299.59-27.88 298.71-27.86 297.83-27.83 296.95-27.71 296.07-27.59 295.29-27.34 294.51-27.1 294.07-26.66L294.07-26.66Q293.73-26.37 293.51-25.85 293.29-25.34 293.14-24.76 293-24.17 292.92-23.61 292.85-23.05 292.85-22.66L292.85-22.66Q292.85-21.88 293-21.14L293-21.14Z" opacity="1" transform="matrix(1,0,0,1,0,0)" fill="#ffffff" class="undefined-text-0" data-fill-palette-color="primary" id="text-0"></path></svg></g></svg></g></svg></g></svg></g></svg></g><defs></defs></svg><rect width="395.52" height="53.4553141075604" fill="none" stroke="none" visibility="hidden"></rect></g></svg></g></svg>